# xmcd CD database file
#
# Track frame offsets:
#	182
#	21342
#	34977
#	45742
#	59850
#	73890
#	88795
#	101522
#	114202
#	127402
#	139230
#	153292
#	168905
#	182052
#	195727
#	210107
#	220382
#	235520
#	247832
#	261757
#
# Disc length: 3695 seconds
#
# Revision: 0
# Processed by: cddbd v1.5.2PL0 Copyright (c) Steve Scherf et al.
# Submitted via: CDex 1.70beta2
#
DISCID=240e6d14
DTITLE=Jimmie Rodgers (1930's) - You and My Old Guitar
DYEAR=1900
DGENRE=Hillbilly
TTITLE0=A Yodelling Cowboy Blue Yodel
TTITLE1=You And My Old Guitar
TTITLE2=Fifteen Years Ago Today
TTITLE3=I'm Free From The Chain Gang Now
TTITLE4=My Little Lady
TTITLE5=Down The Old Road To Home
TTITLE6=Those Gambler's Blues
TTITLE7=Jimmie's Texas Blue
TTITLE8=Frankie And Johnnie
TTITLE9=Home Call
TTITLE10=In The Hills Of Tennessee
TTITLE11=Mississippi Delta Blues
TTITLE12=In The Jailhouse Now No. 2
TTITLE13=Sleep, Baby, Sleep
TTITLE14=Whippin' That Old T.B.
TTITLE15=That's Why I'm Blue
TTITLE16=Away Out On The Mountain
TTITLE17=Never No' Mo' Blues
TTITLE18=The Cowhand's Last Ride
TTITLE19=Rock All Our Babies To Sleep
EXTD=
EXTT0=
EXTT1=
EXTT2=
EXTT3=
EXTT4=
EXTT5=
EXTT6=
EXTT7=
EXTT8=
EXTT9=
EXTT10=
EXTT11=
EXTT12=
EXTT13=
EXTT14=
EXTT15=
EXTT16=
EXTT17=
EXTT18=
EXTT19=
PLAYORDER=
